<svg xmlns="http://www.w3.org/2000/svg" xmlns:xlink="http://www.w3.org/1999/xlink" width="86.316" height="100" viewBox="0 0 86.316 100">
  <defs>
    <clipPath id="clip-path">
      <rect id="Rectangle_176" data-name="Rectangle 176" width="70.316" height="81.049" fill="#2b6ddb"/>
    </clipPath>
  </defs>
  <g id="Group_390" data-name="Group 390" transform="translate(-1186 -1306)">
    <circle id="Ellipse_10" data-name="Ellipse 10" cx="12" cy="12" r="12" transform="translate(1188 1306)" fill="#2b6ddb" opacity="0.09"/>
    <circle id="Ellipse_11" data-name="Ellipse 11" cx="26" cy="26" r="26" transform="translate(1218 1306)" fill="#2b6ddb" opacity="0.09"/>
    <circle id="Ellipse_12" data-name="Ellipse 12" cx="16" cy="16" r="16" transform="translate(1186 1372)" fill="#2b6ddb" opacity="0.09"/>
    <g id="Group_389" data-name="Group 389" transform="translate(1202 1324.951)">
      <g id="Group_388" data-name="Group 388" clip-path="url(#clip-path)">
        <path id="Path_3888" data-name="Path 3888" d="M54.338,81.049c-.938-.263-1.893-.479-2.811-.8a12.976,12.976,0,0,1-6.152-4.3,1.526,1.526,0,0,0-1.337-.614q-19.942.03-39.884.011A4.332,4.332,0,0,1,.007,71.182Q-.009,41.789,0,12.4A4.3,4.3,0,0,1,3.184,8.406,7.365,7.365,0,0,1,4.8,8.239c3.472-.014,6.944-.007,10.512-.007,0-.913,0-1.8,0-2.684,0-.986.429-1.424,1.415-1.43,1.737-.009,3.475-.014,5.213.005a.841.841,0,0,0,.915-.514,6.169,6.169,0,0,1,4.7-3.49c.033-.006.054-.078.081-.119h2.212c.707.307,1.417.606,2.12.922a5.907,5.907,0,0,1,2.882,3.193c1.875,0,3.769,0,5.664,0,1.135,0,1.656.517,1.66,1.631,0,.791,0,1.581,0,2.447.233.013.457.036.682.036q4.739,0,9.477,0A5.706,5.706,0,0,1,55.5,9a4.425,4.425,0,0,1,2,4.015q.034,17.525.012,35.05c0,1.345.019,2.691-.01,4.035-.012.526.172.742.7.783a12.728,12.728,0,0,1,6.651,2.7A13.615,13.615,0,0,1,69.1,60.927a14.48,14.48,0,0,1,1.057,8.095,13.425,13.425,0,0,1-4.747,8.58,13.065,13.065,0,0,1-7.359,3.3c-.083.008-.159.093-.238.142ZM18,6.675l-.127.134v5.378l.126.135c.157.009.315.025.472.025q10.349,0,20.7,0c.15,0,.3-.02.446-.03V6.649H34.369c-1.171,0-1.334-.122-1.733-1.227a4.13,4.13,0,0,0-7.825-.11c-.424,1.165-.626,1.334-1.839,1.339q-2.487.009-4.975.025M54.981,52.685v-.923c0-12.793-.016-25.586.02-38.379,0-1.677-.673-2.633-2.618-2.623-3.133.016-6.267,0-9.4,0h-.812c0,.94.012,1.805,0,2.67a1.367,1.367,0,0,1-1.434,1.443q-12.007.005-24.014,0c-.984,0-1.407-.445-1.411-1.434,0-.885,0-1.771,0-2.677H4.394a1.92,1.92,0,0,0-1.889,1.972Q2.538,41.781,2.5,70.823a2.049,2.049,0,0,0,2.027,2.016q19.037-.052,38.074-.024c.221,0,.441-.023.707-.037A14.266,14.266,0,0,1,54.981,52.685M67.769,66.809c.271-6.383-5.3-11.307-10.889-11.586A11.671,11.671,0,1,0,57,78.519c5.356-.377,11.01-5.035,10.767-11.71" transform="translate(0)" fill="#2b6ddb"/>
        <path id="Path_3889" data-name="Path 3889" d="M84.8,31.624l-.126.134.126-.134" transform="translate(-66.798 -24.949)" fill="#2b6ddb"/>
        <path id="Path_3890" data-name="Path 3890" d="M84.669,57.738l.126.135-.126-.135" transform="translate(-66.798 -45.552)" fill="#2b6ddb"/>
        <path id="Path_3891" data-name="Path 3891" d="M48.507,108.893c0-1.212-.01-2.424,0-3.636.011-.975.343-1.344,1.312-1.353q3.629-.035,7.258,0a1.316,1.316,0,0,1,1.374,1.45c.021,2.344.028,4.69,0,7.034a1.4,1.4,0,0,1-1.565,1.485c-2.209-.014-4.418,0-6.627-.006-1.465,0-1.748-.291-1.751-1.732q0-1.62,0-3.24m2.58,2.38h4.808v-4.816H51.086Z" transform="translate(-38.266 -81.961)" fill="#2b6ddb"/>
        <path id="Path_3892" data-name="Path 3892" d="M53.474,194.128c-1.157,0-2.315.02-3.471-.006s-1.489-.363-1.492-1.511q-.01-3.477,0-6.955c0-1.163.322-1.491,1.491-1.5q3.471-.018,6.943,0a1.354,1.354,0,0,1,1.512,1.474q.031,3.517,0,7.034a1.4,1.4,0,0,1-1.588,1.463c-1.131-.009-2.262,0-3.392,0m2.406-7.411H51.074v4.846h4.805Z" transform="translate(-38.267 -145.283)" fill="#2b6ddb"/>
        <path id="Path_3893" data-name="Path 3893" d="M48.5,269.35c0-1.212-.013-2.424,0-3.636.013-.923.351-1.3,1.277-1.307q3.668-.038,7.337,0a1.3,1.3,0,0,1,1.327,1.414q.036,3.556,0,7.113a1.4,1.4,0,0,1-1.531,1.437c-2.209,0-4.418,0-6.627,0-1.511,0-1.785-.28-1.787-1.777q0-1.62,0-3.241m7.371-2.393H51.07V271.8h4.805Z" transform="translate(-38.264 -208.586)" fill="#2b6ddb"/>
        <path id="Path_3894" data-name="Path 3894" d="M133.186,139.164q4.535,0,9.07,0c1,0,1.62.505,1.6,1.278-.015.74-.638,1.251-1.57,1.251q-9.07.006-18.141,0c-.658,0-1.339-.03-1.585-.824-.3-.983.266-1.695,1.393-1.7,3.076-.014,6.152,0,9.228-.005" transform="translate(-96.632 -109.79)" fill="#2b6ddb"/>
        <path id="Path_3895" data-name="Path 3895" d="M133.108,219.413q4.535,0,9.07,0c.946,0,1.563.481,1.588,1.217.026.773-.61,1.312-1.588,1.313-6.021,0-12.041.015-18.062-.023a2.074,2.074,0,0,1-1.487-.57c-.679-.91.012-1.927,1.251-1.933,3.076-.014,6.152,0,9.228-.005" transform="translate(-96.537 -173.101)" fill="#2b6ddb"/>
        <path id="Path_3896" data-name="Path 3896" d="M133.094,103.907q4.543,0,9.086,0c.943,0,1.564.489,1.582,1.226.019.776-.613,1.3-1.6,1.3-6.031,0-12.062.012-18.093-.019a2.106,2.106,0,0,1-1.408-.474,1.232,1.232,0,0,1,.874-2.016,11.231,11.231,0,0,1,1.184-.022q4.187,0,8.375,0" transform="translate(-96.533 -81.973)" fill="#2b6ddb"/>
        <path id="Path_3897" data-name="Path 3897" d="M133.174,184.157q4.5,0,9.007,0c.943,0,1.563.489,1.582,1.226.02.776-.613,1.3-1.6,1.3-6.031,0-12.062.012-18.093-.019a2.106,2.106,0,0,1-1.408-.474,1.232,1.232,0,0,1,.875-2.016,11.233,11.233,0,0,1,1.184-.022q4.227,0,8.454,0" transform="translate(-96.533 -145.285)" fill="#2b6ddb"/>
        <path id="Path_3898" data-name="Path 3898" d="M129.306,264.4c1.708,0,3.416,0,5.125,0,.97,0,1.532.48,1.527,1.269-.005.769-.588,1.258-1.552,1.259q-5.124.01-10.249,0c-.625,0-1.283-.006-1.565-.741a1.251,1.251,0,0,1,1.275-1.778c1.813-.025,3.627-.007,5.44-.008" transform="translate(-96.629 -208.593)" fill="#2b6ddb"/>
        <path id="Path_3899" data-name="Path 3899" d="M129.3,299.655c1.735,0,3.469-.005,5.2,0,.912,0,1.488.481,1.5,1.217.014.784-.562,1.307-1.5,1.31q-5.2.014-10.407,0c-.67,0-1.327-.094-1.51-.916-.215-.97.29-1.591,1.353-1.6,1.787-.021,3.574-.006,5.361-.007" transform="translate(-96.673 -236.405)" fill="#2b6ddb"/>
        <path id="Path_3900" data-name="Path 3900" d="M229.619,293.894a7.858,7.858,0,0,1,1.264.784c1.013.96,2,1.945,2.958,2.963.486.518.819.557,1.337.016,2.234-2.337,4.5-4.64,6.773-6.942a1.931,1.931,0,0,1,.825-.535,1.148,1.148,0,0,1,1.426.661,1.876,1.876,0,0,1-.278,1.489,22.62,22.62,0,0,1-2.083,2.152q-3.158,3.154-6.32,6.306c-.838.836-1.328.839-2.152.014-1.452-1.453-2.909-2.9-4.351-4.365-.48-.486-.929-1.036-.389-1.733a5.9,5.9,0,0,1,.99-.808" transform="translate(-180.18 -228.898)" fill="#2b6ddb"/>
      </g>
    </g>
  </g>
</svg>
