<svg xmlns="http://www.w3.org/2000/svg" xmlns:xlink="http://www.w3.org/1999/xlink" width="118" height="91" viewBox="0 0 118 91">
  <defs>
    <clipPath id="clip-path">
      <rect id="Rectangle_177" data-name="Rectangle 177" width="91.296" height="79.906" fill="#2b6ddb"/>
    </clipPath>
  </defs>
  <g id="Group_394" data-name="Group 394" transform="translate(-591 -1740)">
    <circle id="Ellipse_14" data-name="Ellipse 14" cx="12" cy="12" r="12" transform="translate(685 1740)" fill="#2b6ddb" opacity="0.09"/>
    <circle id="Ellipse_15" data-name="Ellipse 15" cx="26" cy="26" r="26" transform="translate(640 1769)" fill="#2b6ddb" opacity="0.09"/>
    <circle id="Ellipse_16" data-name="Ellipse 16" cx="16" cy="16" r="16" transform="translate(591 1752)" fill="#2b6ddb" opacity="0.09"/>
    <g id="Group_393" data-name="Group 393" transform="translate(603 1751.094)">
      <g id="Group_392" data-name="Group 392">
        <g id="Group_391" data-name="Group 391" clip-path="url(#clip-path)">
          <path id="Path_3901" data-name="Path 3901" d="M0,51.575c.3-1.087.514-2.207.917-3.256a15.977,15.977,0,0,1,5.8-7.429,2.66,2.66,0,0,0,.912-1,37.338,37.338,0,0,1,24.1-20.562,34.317,34.317,0,0,1,6.72-1.213c1.143-.077,2.289-.114,3.433-.183,1.02-.062,1.486.414,1.627,1.5a4.85,4.85,0,0,1,0,.622q0,17.176-.011,34.352a1.768,1.768,0,0,0,.567,1.384C52.147,63.833,60.2,71.907,68.3,79.928c1.22,1.208,1.089,1.88-.054,2.982a38.151,38.151,0,0,1-9.788,6.845,34.394,34.394,0,0,1-9.621,3.106c-1.489.242-3,.378-4.5.535a18.927,18.927,0,0,1-2.541.172,37.832,37.832,0,0,1-10.787-1.715,1.767,1.767,0,0,0-2.054.327A5.238,5.238,0,0,1,25,93.47c-6.36-.019-12.72-.057-19.079.021a5.438,5.438,0,0,1-4.647-1.97A14.308,14.308,0,0,1,0,89.13V86.817L1.47,84,0,81.121V78.807l1.51-2.924L0,73.111V70.62a27.318,27.318,0,0,1,1.888-2.858c1.1-1.3,2.748-1.262,4.334-1.44a2.739,2.739,0,0,0-.172-.247,2.448,2.448,0,0,0-.313-.313,13.826,13.826,0,0,1-4.69-6.44C.633,58.187.345,57.007,0,55.847V51.575m31.075,37.4c12.938,3.789,24.472,1.182,34.8-7.614-.315-.273-.575-.473-.806-.7Q53.308,68.928,41.544,57.207a2.8,2.8,0,0,1-.9-2.172q.037-16.636.016-33.273v-.947C28.38,21,16.44,28.758,11.512,38.731c8.8-1.859,15.4,2.561,17.984,8.434,3.329,7.568,1.215,13.987-5.134,19.422,3.053-.354,5.165.665,6.234,3.227a5.292,5.292,0,0,1-1.33,6.065,5.785,5.785,0,0,1,1.747,4.007,5.228,5.228,0,0,1-1.8,4.051c1.586,1.814,1.661,2.36,1.867,5.038M15.394,66.348A12.607,12.607,0,0,0,28.161,53.557c-.092-6.24-5.114-13.156-14.4-12.309A12.531,12.531,0,0,0,2.859,55.017C3.279,60.63,8.545,66.6,15.394,66.348m-.02,8.141c3.384,0,6.768.011,10.152,0a2.625,2.625,0,0,0,2.48-3.417,2.816,2.816,0,0,0-2.959-1.839q-8.416,0-16.832,0c-.92,0-1.844-.049-2.76.014a2.557,2.557,0,0,0-2.612,2.741A2.628,2.628,0,0,0,5.578,74.5c3.265-.041,6.53-.012,9.8-.011m.054,8.055c3.385,0,6.769.006,10.154,0a2.817,2.817,0,0,0,2.587-2.256,2.511,2.511,0,0,0-1.792-2.731,15.731,15.731,0,0,0-1.987-.207c-6.294-.016-12.588,0-18.882-.017a2.608,2.608,0,1,0,.034,5.213q4.943,0,9.886,0m-.017,8.06v.009c3.3,0,6.591.034,9.886-.029a3.753,3.753,0,0,0,1.92-.637,2.3,2.3,0,0,0,.841-2.637,2.621,2.621,0,0,0-2.852-1.9c-6.59-.049-13.182-.032-19.772,0a2.968,2.968,0,0,0-1.589.538,2.459,2.459,0,0,0-.864,2.871,2.3,2.3,0,0,0,2.366,1.767c3.354.029,6.709.01,10.064.01" transform="translate(0 -13.665)" fill="#2b6ddb"/>
          <path id="Path_3902" data-name="Path 3902" d="M257.686,184.7a16.363,16.363,0,0,0-.52,2.024,35.4,35.4,0,0,1-6.3,16.007,56.621,56.621,0,0,1-4.317,5.075c-.771.86-1.4.786-2.289-.106l-16.757-16.725-8.378-8.363c-.5-.5-1.05-1.032-.761-1.808a1.76,1.76,0,0,1,1.911-1.067q17.728.029,35.456,0a2.178,2.178,0,0,1,1.951,1.052Zm-34.216-2.069-.141.022.131.072c.189.221.364.455.569.66q3.612,3.623,7.232,7.239,7.095,7.1,14.226,14.244A34.693,34.693,0,0,0,254.77,182.6h-1q-14.3,0-28.608,0c-.563,0-1.127.022-1.69.033" transform="translate(-166.391 -137.002)" fill="#2b6ddb"/>
          <path id="Path_3903" data-name="Path 3903" d="M217.679,39.155h-17.74c-1.357,0-1.775-.376-1.776-1.693q-.01-17.93,0-35.861c0-1.23.408-1.613,1.657-1.6a37.71,37.71,0,0,1,15.23,3.266,38.883,38.883,0,0,1,9.836,6.424,36.817,36.817,0,0,1,8.891,11.854,30.644,30.644,0,0,1,3.032,9.9q.336,3.04.527,6.095c.073,1.147-.459,1.616-1.649,1.617q-9,0-18.008,0m16.749-2.883C234.2,17.759,217.667,2.95,201.066,2.95V36.272Z" transform="translate(-151.047 0)" fill="#2b6ddb"/>
          <path id="Path_3904" data-name="Path 3904" d="M239.632,191.927l.031.051-.041.044-.131-.073.141-.022" transform="translate(-182.552 -146.297)" fill="#2b6ddb"/>
        </g>
      </g>
      <text id="_" data-name="₹" transform="translate(9.292 46.371)" fill="#2b6ddb" font-size="20" font-family="MyriadPro-Bold, Myriad Pro" font-weight="700"><tspan x="0" y="0">₹</tspan></text>
    </g>
  </g>
</svg>
