<svg xmlns="http://www.w3.org/2000/svg" width="51.896" height="52.122" viewBox="0 0 51.896 52.122">
  <g id="whatsapp" transform="translate(0 0.001)">
    <path id="Path_3858" data-name="Path 3858" d="M1.109,52.122a1.109,1.109,0,0,1-1.07-1.4L3.428,38.346A25.845,25.845,0,1,1,26.052,51.693h-.011a25.9,25.9,0,0,1-11.958-2.936L1.39,52.085a1.115,1.115,0,0,1-.281.036Zm0,0" transform="translate(0)" fill="#e5e5e5"/>
    <path id="Path_3859" data-name="Path 3859" d="M10.895,60.8,14.4,47.985A24.736,24.736,0,1,1,35.837,60.371h-.011a24.714,24.714,0,0,1-11.82-3.01Zm13.72-7.915.751.445a20.531,20.531,0,0,0,10.464,2.866h.008a20.557,20.557,0,1,0-17.416-9.632l.489.778-2.077,7.584Zm0,0" transform="translate(-9.785 -9.786)" fill="#fff"/>
    <path id="Path_3860" data-name="Path 3860" d="M19.344,67.559l3.388-12.371A23.879,23.879,0,1,1,43.423,67.145h-.011A23.875,23.875,0,0,1,32,64.24Zm0,0" transform="translate(-17.374 -17.41)" fill="#64b161"/>
    <g id="Group_341" data-name="Group 341" transform="translate(1.109 1.109)">
      <path id="Path_3861" data-name="Path 3861" d="M10.895,60.8,14.4,47.985A24.736,24.736,0,1,1,35.837,60.371h-.011a24.714,24.714,0,0,1-11.82-3.01Zm13.72-7.915.751.445a20.531,20.531,0,0,0,10.464,2.866h.008a20.557,20.557,0,1,0-17.416-9.632l.489.778-2.077,7.584Zm0,0" transform="translate(-10.895 -10.895)" fill="#fff"/>
      <path id="Path_3862" data-name="Path 3862" d="M138.833,142.7c-.463-1.029-.95-1.05-1.391-1.068-.36-.015-.773-.015-1.184-.015a2.271,2.271,0,0,0-1.648.773,6.928,6.928,0,0,0-2.164,5.154c0,3.041,2.215,5.98,2.524,6.392s4.276,6.852,10.557,9.329c5.221,2.059,6.283,1.65,7.416,1.546s3.656-1.5,4.171-2.938a5.161,5.161,0,0,0,.361-2.939c-.155-.257-.567-.412-1.185-.721s-3.656-1.8-4.223-2.011-.979-.309-1.391.31-1.6,2.01-1.957,2.422-.721.465-1.339.155a16.9,16.9,0,0,1-4.97-3.068,18.623,18.623,0,0,1-3.439-4.28c-.36-.618-.006-.923.272-1.261a18.634,18.634,0,0,0,1.545-2.113,1.139,1.139,0,0,0-.051-1.083C140.583,146.974,139.382,143.918,138.833,142.7Zm0,0" transform="translate(-120.072 -128.306)" fill="#fff" fill-rule="evenodd"/>
    </g>
  </g>
</svg>
