<svg xmlns="http://www.w3.org/2000/svg" xmlns:xlink="http://www.w3.org/1999/xlink" width="92" height="91" viewBox="0 0 92 91">
  <defs>
    <clipPath id="clip-path">
      <rect id="Rectangle_175" data-name="Rectangle 175" width="63" height="60.839" fill="#2b6ddb"/>
    </clipPath>
  </defs>
  <g id="Group_387" data-name="Group 387" transform="translate(-775 -1329)">
    <circle id="Ellipse_6" data-name="Ellipse 6" cx="12" cy="12" r="12" transform="translate(796 1329)" fill="#2b6ddb" opacity="0.09"/>
    <circle id="Ellipse_7" data-name="Ellipse 7" cx="26" cy="26" r="26" transform="translate(775 1368)" fill="#2b6ddb" opacity="0.09"/>
    <circle id="Ellipse_8" data-name="Ellipse 8" cx="16" cy="16" r="16" transform="translate(835 1341)" fill="#2b6ddb" opacity="0.09"/>
    <g id="Group_386" data-name="Group 386" transform="translate(801 1349.161)">
      <g id="Group_385" data-name="Group 385" clip-path="url(#clip-path)">
        <path id="Path_3880" data-name="Path 3880" d="M8.206,46.753c.007-.269.02-.539.02-.808,0-12.9.018-25.8-.016-38.7a7.12,7.12,0,0,1,2.163-5.372A6.977,6.977,0,0,1,15.5.009Q35.59,0,55.679.014a7.033,7.033,0,0,1,7.305,7.094c.027,2.182.013,4.365,0,6.547a1.337,1.337,0,0,1-1.523,1.476q-4.5,0-8.994,0h-.819V53.115a7.573,7.573,0,0,1-1.2,4.58,6.589,6.589,0,0,1-4.884,3.029c-1.5.13-3.024.106-4.537.107-11.329.006-22.657-.012-33.986.007A7.032,7.032,0,0,1,.163,55.357a6.952,6.952,0,0,1,3.8-7.671,11.836,11.836,0,0,1,4.123-.807l.118-.126M39.26,49.532c-.122-.005-.245-.015-.368-.015q-15.805,0-31.61,0a6.34,6.34,0,0,0-.809.031,4.277,4.277,0,0,0-3.936,4.5,4.351,4.351,0,0,0,4.538,4.27q15.731-.021,31.462,0h.768c-2.164-3.09-1.986-6.064-.1-8.62l.135-.085-.082-.081M10.768,47H28.9q7.779,0,15.558,0a1.24,1.24,0,0,1,1.4,1.125c.065.811-.223,1.375-1.323,1.4A4.366,4.366,0,0,0,40.415,55,4.229,4.229,0,0,0,45.9,58.089,4.359,4.359,0,0,0,49.13,53.6q.009-23.4.011-46.8a3.131,3.131,0,0,1,.066-.989c.379-1.1.81-2.188,1.226-3.292h-.687q-16.7,0-33.4,0a15.54,15.54,0,0,0-1.98.088A4.063,4.063,0,0,0,10.77,6.536c-.04,13.293-.026,26.586-.028,39.879,0,.169.015.338.026.587M60.559,12.6c-.087-2.236-.023-4.419-.293-6.56-.323-2.567-2.947-3.914-5.442-3.345a4.366,4.366,0,0,0-3.16,4.018c.034,1.953.008,3.908.008,5.887Z" transform="translate(0.001 0)" fill="#2b6ddb"/>
        <path id="Path_3881" data-name="Path 3881" d="M41.264,237.829l-.118.126.118-.126" transform="translate(-33.057 -191.076)" fill="#2b6ddb"/>
        <path id="Path_3882" data-name="Path 3882" d="M199.446,252.128l.053-.167.082.081-.134.085" transform="translate(-160.238 -202.429)" fill="#2b6ddb"/>
        <path id="Path_3883" data-name="Path 3883" d="M91.181,203.258H77.553a1.3,1.3,0,0,1-1.2-1.008c-.085-.813.226-1.326.912-1.464a3.745,3.745,0,0,1,.731-.048q13.259,0,26.519,0c1,0,1.587.42,1.633,1.148a1.23,1.23,0,0,1-1.193,1.354,9.074,9.074,0,0,1-.957.016q-6.409,0-12.817,0" transform="translate(-61.331 -161.275)" fill="#2b6ddb"/>
        <path id="Path_3884" data-name="Path 3884" d="M91.125,160.337c-4.493,0-8.986-.02-13.479.018a1.268,1.268,0,0,1-1.361-1.385c.106-.8.5-1.142,1.516-1.142H96.289q4.088,0,8.176,0c.991,0,1.61.482,1.63,1.242.021.8-.483,1.263-1.417,1.265q-5.377.008-10.754,0h-2.8" transform="translate(-61.28 -126.8)" fill="#2b6ddb"/>
        <path id="Path_3885" data-name="Path 3885" d="M132.139,44.4c-.412.623-.8,1.262-1.239,1.865q-3.757,5.175-7.534,10.335c-.678.928-1.367,1.849-2.054,2.772a1.492,1.492,0,0,1-1.453.628.951.951,0,0,1-.893-.881,1.968,1.968,0,0,1,.331-1.227c1.459-2.05,2.975-4.06,4.459-6.093,1.766-2.418,3.517-4.846,5.277-7.269.24-.331.494-.652.735-.983a1.172,1.172,0,0,1,1.458-.411.97.97,0,0,1,.742,1.171l.171.092" transform="translate(-95.574 -34.574)" fill="#2b6ddb"/>
        <path id="Path_3886" data-name="Path 3886" d="M114.1,43.1a4.573,4.573,0,0,1-1.719,3.8,3.377,3.377,0,0,1-4.995-.785,5.009,5.009,0,0,1,.635-6.648,3.475,3.475,0,0,1,4.233-.227A4.548,4.548,0,0,1,114.1,43.1m-2.375,0a8.192,8.192,0,0,0-.609-1.483.933.933,0,0,0-1.519-.185,2.557,2.557,0,0,0,.032,3.441.791.791,0,0,0,1.167.058,2.4,2.4,0,0,0,.929-1.83" transform="translate(-85.498 -31.034)" fill="#2b6ddb"/>
        <path id="Path_3887" data-name="Path 3887" d="M166.059,92.427a4.535,4.535,0,0,1-1.924,3.969,3.421,3.421,0,0,1-4.8-.954,5.084,5.084,0,0,1,.06-6.046,3.253,3.253,0,0,1,3.355-1.387,3.83,3.83,0,0,1,3.1,3,10.692,10.692,0,0,1,.209,1.414m-2.4.044a8.114,8.114,0,0,0-.624-1.521.965.965,0,0,0-1.631-.063,2.738,2.738,0,0,0,.056,3.228.964.964,0,0,0,1.582-.1,11.087,11.087,0,0,0,.617-1.544" transform="translate(-127.239 -70.661)" fill="#2b6ddb"/>
      </g>
    </g>
  </g>
</svg>
