<svg xmlns="http://www.w3.org/2000/svg" xmlns:xlink="http://www.w3.org/1999/xlink" width="118" height="90" viewBox="0 0 118 90">
  <defs>
    <clipPath id="clip-path">
      <rect id="Rectangle_174" data-name="Rectangle 174" width="58.913" height="72.77" fill="#2b6ddb"/>
    </clipPath>
  </defs>
  <g id="Group_383" data-name="Group 383" transform="translate(-23 -38)">
    <circle id="Ellipse_28" data-name="Ellipse 28" cx="12" cy="12" r="12" transform="translate(117 38)" fill="#ecf2fc"/>
    <circle id="Ellipse_29" data-name="Ellipse 29" cx="26" cy="26" r="26" transform="translate(72 67)" fill="#ecf2fc"/>
    <circle id="Ellipse_30" data-name="Ellipse 30" cx="16" cy="16" r="16" transform="translate(23 50)" fill="#ecf2fc"/>
    <g id="Group_381" data-name="Group 381" transform="translate(35 55.23)">
      <g id="Group_381-2" data-name="Group 381" clip-path="url(#clip-path)">
        <path id="Path_3864" data-name="Path 3864" d="M23.709,0c.424.333.8.726.605,1.361s-.678.785-1.258.78c-2.388-.021-4.777.017-7.164-.02a2.073,2.073,0,0,0-2.141,2.329c.03,6.393.012,12.785.013,19.178,0,.207.016.414.021.533,1.434,0,2.827-.042,4.217.008a29.239,29.239,0,0,1,9.1,1.554,1.168,1.168,0,0,0,.712-.089,8.9,8.9,0,0,1,1.612-.6,16.572,16.572,0,0,1,2.428-.023,2.832,2.832,0,0,1,2.856,2.593,3.237,3.237,0,0,1-1.969,3.469A5.859,5.859,0,0,1,31.1,31.1V35.27a11.1,11.1,0,0,1,1.64.274,2.881,2.881,0,0,1,1.973,3.122A2.787,2.787,0,0,1,32.5,41.453a13.7,13.7,0,0,1-3.687.005c-.436-.04-.838-.53-1.256-.814l-.094-.1c-.005.037-.01.074-.016.111q0,1.847,0,3.693l-.012.251.105.089.1-.246a2.982,2.982,0,0,1,2.3-.671,19.05,19.05,0,0,0,2.047,0,2.51,2.51,0,0,1,2.363,1.52,3.069,3.069,0,0,1-.034,3.081,2.662,2.662,0,0,1-2.435,1.516c-.273,0-.546,0-.848,0V51.8a9.7,9.7,0,0,1,2.436.814,3.131,3.131,0,0,1,.005,5.046,3.656,3.656,0,0,1-1.791.589c-.946.095-1.9-.1-2.714.746a6.417,6.417,0,0,1-1.53.86c-.109.062-.259.216-.254.319.072,1.343.169,2.684.261,4.026,0,.021.022.04.059.106h.6c8.849,0,17.7-.02,26.547.021,1.37.006,2.357-.848,2.342-2.62-.034-3.836-.011-7.672-.01-11.508,0-.95.225-1.286.86-1.311.654-.025,1.053.452,1.057,1.326.009,2.652,0,5.3,0,7.956,0,1.184-.012,2.368,0,3.552.035,2.846-1.665,4.754-4.258,4.746-8.806-.029-17.613-.011-26.419-.011h-.628a14.093,14.093,0,0,1-.679,2.209,5.377,5.377,0,0,1-2.754,2.254A23.86,23.86,0,0,1,18,72.626c-.315.061-.634.1-.951.145H15.262a1.22,1.22,0,0,1-.617-1.3,1.007,1.007,0,0,1,.9-.831c1.185-.118,2.37-.252,3.55-.425a13.028,13.028,0,0,0,5.294-1.819c.485-.313,1.037-.633,1.093-1.311.074-.907.018-1.828.018-2.622a29.1,29.1,0,0,1-23.552.031c0,.612.053,1.351-.014,2.077a1.736,1.736,0,0,0,.854,1.7A12.3,12.3,0,0,0,7.9,70.2c1.128.227,2.284.271,3.419.464a1.247,1.247,0,0,1,.728.558c.351.564.155.986-.626,1.553h-1.28a.822.822,0,0,0-.248-.148c-1.171-.193-2.358-.3-3.51-.582A12.774,12.774,0,0,1,1.69,70.063a3.714,3.714,0,0,1-1.683-3.4C.1,64.848.044,63.02.023,61.2a3.061,3.061,0,0,1,1.293-2.625c.794-.587,1.658-1.057,2.5-1.583A44.778,44.778,0,0,1,3.8,48.864c-.694-.418-1.388-.811-2.06-1.245a3.62,3.62,0,0,1-1.73-3.485c.084-1.867.005-3.742.039-5.612a2.8,2.8,0,0,1,.314-1.153,5.127,5.127,0,0,1,2.783-2.378.7.7,0,0,0,.5-.789c-.022-1.4.035-2.8-.02-4.191a3.28,3.28,0,0,1,1.4-2.855,12.707,12.707,0,0,1,6.245-2.422c.375-.053.589-.173.588-.681-.014-6.584,0-13.169-.015-19.753A4.213,4.213,0,0,1,14.059.391c.272-.132.546-.26.819-.39ZM17.086,33.466c.948-.069,1.9-.084,2.842-.218,1.729-.246,3.467-.472,5.168-.876a6.742,6.742,0,0,0,3.69-1.977c.42-.477.429-.917-.059-1.288a9.2,9.2,0,0,0-1.719-1.087,22.761,22.761,0,0,0-8.665-1.695c-1.679-.068-3.368.163-5.053.254A17.422,17.422,0,0,0,7.786,27.9a6.907,6.907,0,0,0-1.813,1.142c-.518.433-.688.988-.076,1.421a12.211,12.211,0,0,0,2.391,1.5,24.255,24.255,0,0,0,8.8,1.512m-15.138,8.6a20,20,0,0,1-.014,2.006,1.773,1.773,0,0,0,.712,1.677,5.336,5.336,0,0,0,1.059.711A22.419,22.419,0,0,0,12.149,48.3a29.593,29.593,0,0,0,7.773-.661,13.941,13.941,0,0,0,4.1-1.452c.607-.352,1.376-.64,1.459-1.552.08-.886.018-1.787.018-2.607a29.1,29.1,0,0,1-23.552.035m3.586-8.942c0,.821-.009,1.72.008,2.618a.747.747,0,0,0,.175.485,7.444,7.444,0,0,0,1.5,1.218A20.863,20.863,0,0,0,15.5,39.353a30.567,30.567,0,0,0,7.607-.541,12.79,12.79,0,0,0,5-1.857c.375-.261.874-.653.932-1.054a19.08,19.08,0,0,0,.044-2.785,29.145,29.145,0,0,1-23.547,0m23.554,19.96C25.339,55.2,21.34,55.651,17.3,55.69a23,23,0,0,1-11.77-2.574,14.307,14.307,0,0,1-.012,1.772,2.3,2.3,0,0,0,1.425,2.54c2.9,1.583,6.034,1.869,9.173,2.106a15.084,15.084,0,0,0,2.971-.134c1.94-.24,3.887-.472,5.8-.871a7.368,7.368,0,0,0,3.541-1.687,1.87,1.87,0,0,0,.622-1.031,26.8,26.8,0,0,0,.029-2.729M5.678,49.55c-.274.3-.181.682.136.992a5.7,5.7,0,0,0,1.1.9c2.816,1.609,5.9,1.886,8.979,2.122,1.09.083,2.194-.092,3.292-.117a21.053,21.053,0,0,0,6.217-1.032,14.2,14.2,0,0,0,2.937-1.421c.976-.6.953-1.433,0-2.076A16.091,16.091,0,0,0,26.52,47.91a1.437,1.437,0,0,0-1.539.1c-3.129,1.891-6.605,2.185-10.058,2.406a33.983,33.983,0,0,1-5.244-.272c-1.3-.119-2.581-.381-4-.6m9.917,15.121.005.055c.5-.066,1-.164,1.5-.193a18.4,18.4,0,0,0,6.5-1.6,7.525,7.525,0,0,0,1.791-1.515c.078-.074.044-.4-.033-.541a.488.488,0,0,0-.407-.164,3.31,3.31,0,0,0-.789.151,22.978,22.978,0,0,1-6.593.78,44.721,44.721,0,0,1-6.079-.536A14.821,14.821,0,0,1,5.463,58.98c-.114-.07-.292-.142-.39-.092-.909.461-1.825.914-2.7,1.443a.928.928,0,0,0-.117,1.474,18.05,18.05,0,0,0,2.3,1.429,22.827,22.827,0,0,0,8.2,1.561,25.973,25.973,0,0,0,2.847-.124m5.364-23.12-.024-.237a20.023,20.023,0,0,1-2.237.175c-1.878-.053-3.756-.15-5.631-.278a16.541,16.541,0,0,1-5.79-1.444,9.909,9.909,0,0,1-2.831-1.9c-.792-.785-.93-.96-1.77-.212a4.976,4.976,0,0,0-.41.447.95.95,0,0,0,.087,1.486,7.081,7.081,0,0,0,1.316.881,21.236,21.236,0,0,0,8.367,1.861,43.232,43.232,0,0,0,5.308-.266c1.21-.1,2.411-.334,3.616-.508m9.754,4.358v0a4.8,4.8,0,0,0-1.333.033c-.259.076-.44.478-.655.733a6.071,6.071,0,0,0,1.5,1.045,4.263,4.263,0,0,0,1.84.014.857.857,0,0,0,.728-.974c-.042-.485-.243-.884-.8-.851-.425.025-.852,0-1.278,0m-1.883-6.816a1.852,1.852,0,0,0,.616.276q1.273.042,2.547,0a.8.8,0,0,0,.8-.927.808.808,0,0,0-.817-.909,11.6,11.6,0,0,0-1.273,0,.762.762,0,0,0-.44.186c-.464.421-.908.868-1.433,1.375m.863-11.945a5.078,5.078,0,0,1,.79,1.056A1.231,1.231,0,0,0,32,29a.823.823,0,0,0,.79-.881c.022-.587-.264-.935-.777-.959-.778-.036-1.559-.009-2.324-.009m1.34,29c.613-.035,1.281.206,1.622-.578a1.183,1.183,0,0,0,.011-.877c-.381-.7-1.023-.549-1.633-.51Z" transform="translate(-0.001 -0.001)" fill="#2b6ddb"/>
        <path id="Path_3865" data-name="Path 3865" d="M185.7,0a12.511,12.511,0,0,1,1.215.583A4.3,4.3,0,0,1,188.9,4.545q0,18.474,0,36.948c0,1.137.01,2.274,0,3.411-.008.692-.385,1.132-.936,1.146-.7.018-.95-.244-.979-1.021-.008-.213,0-.426,0-.639q0-19.789,0-39.577c0-1.841-.754-2.681-2.406-2.681H158.083c-.493,0-.963,0-1.192-.645A1.2,1.2,0,0,1,157.411,0Z" transform="translate(-129.991)" fill="#2b6ddb"/>
        <path id="Path_3866" data-name="Path 3866" d="M119.665,40.405h16.628c1.078,0,1.389.345,1.389,1.543q0,4.794,0,9.587c0,1.089-.359,1.488-1.346,1.488q-16.692,0-33.384,0c-1,0-1.266-.287-1.268-1.368q-.009-4.936,0-9.872c0-1.132.238-1.378,1.29-1.378q8.346,0,16.692,0m-16.03,10.43h32.086V42.574H103.634Z" transform="translate(-84.293 -32.748)" fill="#2b6ddb"/>
        <path id="Path_3867" data-name="Path 3867" d="M214.22,138.255a4.32,4.32,0,0,1-2.594-.609,3.338,3.338,0,0,1-1.264-3.432,2.819,2.819,0,0,1,2.781-2.282,18.944,18.944,0,0,1,3.208.2,2.911,2.911,0,0,1,1.893,3.178,2.99,2.99,0,0,1-2.344,2.737c-.557.091-1.12.139-1.681.207m-.07-2.335c.426,0,.851,0,1.277,0a.922.922,0,0,0,.026-1.843c-.829-.017-1.66-.02-2.489,0-.512.011-.737.343-.74.908,0,.6.235.921.778.936.383.011.766,0,1.149,0" transform="translate(-174.312 -106.925)" fill="#2b6ddb"/>
        <path id="Path_3868" data-name="Path 3868" d="M268.23,131.132a12.675,12.675,0,0,1,2.6.6,2.965,2.965,0,0,1,1.384,3.012c-.252,1.4-.828,2.352-2.23,2.621a11.772,11.772,0,0,1-3.5.017,3,3,0,0,1-2.183-3.58,2.8,2.8,0,0,1,2.745-2.506c.383.024.767,0,1.151,0l.029-.164m-.085,4.144c.447,0,.894.016,1.34,0a.925.925,0,0,0,0-1.837c-.85-.026-1.7-.025-2.552,0-.515.013-.725.363-.724.921s.2.895.723.919c.4.019.808,0,1.212,0" transform="translate(-219.078 -106.282)" fill="#2b6ddb"/>
        <path id="Path_3869" data-name="Path 3869" d="M268.09,280.448a3.4,3.4,0,0,1-2.8-.683,3.21,3.21,0,0,1-1.018-3.034,2.637,2.637,0,0,1,1.643-2.236,8,8,0,0,1,4.418-.074,2.932,2.932,0,0,1,1.85,2.607,2.9,2.9,0,0,1-1.488,2.965,12.281,12.281,0,0,1-2.575.648l-.03-.192m.126-2.113c.34,0,.681.008,1.021,0a1.024,1.024,0,0,0,1.029-1.052,1.008,1.008,0,0,0-1-.932c-.723-.015-1.447-.012-2.17,0-.625.01-.9.307-.92.947a1,1,0,0,0,.894,1.035c.381.026.766,0,1.149.005" transform="translate(-219.039 -222.194)" fill="#2b6ddb"/>
        <path id="Path_3870" data-name="Path 3870" d="M213.968,279.928a3.451,3.451,0,0,1-2.481-.581c-1.609-1.292-1.737-4.277.235-5.235a5.209,5.209,0,0,1,5.362.24,3.157,3.157,0,0,1-.176,5.035,4.856,4.856,0,0,1-2.941.541m.312-2.128c.341,0,.681.009,1.022,0a.992.992,0,1,0,.011-1.984c-.724-.014-1.448-.013-2.171,0-.615.011-.9.323-.917.955a1.01,1.01,0,0,0,.906,1.027c.382.024.766,0,1.149,0" transform="translate(-174.309 -221.659)" fill="#2b6ddb"/>
        <path id="Path_3871" data-name="Path 3871" d="M268.285,230.32a9.624,9.624,0,0,1,2.384.446,2.9,2.9,0,0,1,1.512,3.26,2.937,2.937,0,0,1-2.73,2.535c-.873-.01-1.746-.02-2.619-.006-1.374.023-2.531-1.665-2.574-2.859a2.993,2.993,0,0,1,1.975-3.184,9.037,9.037,0,0,1,2.034-.028l.017-.164m-.05,2.261c-.4,0-.809.012-1.213,0a.718.718,0,0,0-.813.744c-.054.58.143,1.051.711,1.085a12.991,12.991,0,0,0,2.611-.028c.287-.041.674-.573.729-.935a.715.715,0,0,0-.812-.868c-.4.023-.808,0-1.213,0" transform="translate(-219.07 -186.673)" fill="#2b6ddb"/>
        <path id="Path_3872" data-name="Path 3872" d="M214.312,230.321a9.438,9.438,0,0,1,2.382.446,3.11,3.11,0,0,1-1.2,5.787c-.808.032-1.618-.007-2.426.009a2.6,2.6,0,0,1-2.47-1.672,3.281,3.281,0,0,1,.127-3.1,2.28,2.28,0,0,1,2.229-1.344c.446.021.894,0,1.341,0l.017-.128m-.028,2.261c-.4,0-.809.01-1.213,0a.738.738,0,0,0-.838.792c-.038.592.193,1.016.758,1.041.85.037,1.7.03,2.554.006a.973.973,0,0,0,.776-1.012c-.078-.49-.277-.868-.824-.83-.4.028-.809.005-1.213.005" transform="translate(-174.313 -186.674)" fill="#2b6ddb"/>
        <path id="Path_3873" data-name="Path 3873" d="M268.191,192.53a7.236,7.236,0,0,0-1.213.011c-1.18.2-2.506-1.263-2.64-2.548-.208-2,.8-3.194,2.044-3.52a10.046,10.046,0,0,1,2.929-.041,3.6,3.6,0,0,1,1.384.294,3.087,3.087,0,0,1,1.547,3.256,2.828,2.828,0,0,1-2.58,2.549h-1.47m-.042-2.133c.468,0,.936.023,1.4-.006a.806.806,0,0,0,.787-.947c-.014-.544-.293-.872-.78-.887-.871-.027-1.743-.031-2.614,0-.471.016-.691.346-.7.877s.164.919.69.958c.4.029.807.006,1.211.008" transform="translate(-219.116 -151.028)" fill="#2b6ddb"/>
        <path id="Path_3874" data-name="Path 3874" d="M214.225,192.366a6.422,6.422,0,0,0-1.084.009c-1.428.246-2.618-1.254-2.825-2.468-.275-1.615.571-3.3,2.04-3.522,1.559-.23,3.224-.573,4.717.443a3.087,3.087,0,0,1,1.088,3.141c-.43,1.567-1.343,2.409-2.6,2.4-.447,0-.894,0-1.34,0m.023-2.132c.4,0,.809.012,1.213,0a.821.821,0,0,0,.858-.941c-.024-.579-.313-.893-.836-.9-.83-.012-1.661-.018-2.491,0-.5.009-.758.3-.77.876s.178.957.748.969c.426.009.852,0,1.277,0" transform="translate(-174.311 -150.864)" fill="#2b6ddb"/>
        <path id="Path_3875" data-name="Path 3875" d="M160.655,234.088l-.1.246-.105-.089.012-.251.2.094" transform="translate(-133.012 -189.651)" fill="#2b6ddb"/>
        <path id="Path_3876" data-name="Path 3876" d="M160.542,214.032l.016-.111.094.1a.472.472,0,0,1-.109.008" transform="translate(-133.091 -173.382)" fill="#2b6ddb"/>
        <path id="Path_3877" data-name="Path 3877" d="M28.952,113.177c-.533,0-1.065.012-1.6,0a1,1,0,0,1-.983-1.011.982.982,0,0,1,.976-1.106c1.065-.023,2.131-.028,3.2,0a.968.968,0,0,1,.948,1.13,1,1,0,0,1-1,.991c-.511.009-1.023,0-1.534,0v0" transform="translate(-21.862 -89.996)" fill="#2b6ddb"/>
        <path id="Path_3878" data-name="Path 3878" d="M28.858,95.77c-.512,0-1.023,0-1.535,0a.993.993,0,0,1-.957-1.038.98.98,0,0,1,.858-1.073c1.129-.037,2.262-.061,3.388.008a.929.929,0,0,1,.88,1.056.941.941,0,0,1-.909,1.032,13.887,13.887,0,0,1-1.725.015" transform="translate(-21.856 -75.881)" fill="#2b6ddb"/>
        <path id="Path_3879" data-name="Path 3879" d="M46.056,75c.692,0,.954.271.947.966A.991.991,0,0,1,46.042,77a1.051,1.051,0,0,1-.959-1.046c.024-.671.313-.953.973-.95" transform="translate(-37.374 -60.786)" fill="#2b6ddb"/>
      </g>
    </g>
  </g>
</svg>
