<svg xmlns="http://www.w3.org/2000/svg" xmlns:xlink="http://www.w3.org/1999/xlink" width="94.573" height="91" viewBox="0 0 94.573 91">
  <defs>
    <clipPath id="clip-path">
      <rect id="Rectangle_178" data-name="Rectangle 178" width="71.573" height="71.522" fill="#2b6ddb"/>
    </clipPath>
  </defs>
  <g id="Group_398" data-name="Group 398" transform="translate(-969 -1749)">
    <circle id="Ellipse_18" data-name="Ellipse 18" cx="12" cy="12" r="12" transform="translate(990 1749)" fill="#2b6ddb" opacity="0.09"/>
    <circle id="Ellipse_19" data-name="Ellipse 19" cx="26" cy="26" r="26" transform="translate(969 1788)" fill="#2b6ddb" opacity="0.09"/>
    <circle id="Ellipse_20" data-name="Ellipse 20" cx="16" cy="16" r="16" transform="translate(1029 1761)" fill="#2b6ddb" opacity="0.09"/>
    <g id="Group_397" data-name="Group 397" transform="translate(992 1757.239)">
      <g id="Group_396" data-name="Group 396">
        <g id="Group_395" data-name="Group 395" clip-path="url(#clip-path)">
          <path id="Path_3905" data-name="Path 3905" d="M96.155,185.584a35.767,35.767,0,0,1-60.218,26.045c-.134.114-.28.224-.409.352-1.057,1.051-2.082,2.134-3.183,3.136a1.6,1.6,0,0,1-1.186.32c-.51-.081-.718-.56-.712-1.091.007-.625,0-1.25,0-1.875q0-5.265,0-10.53c0-1.056.353-1.4,1.418-1.4,4.037,0,8.074-.007,12.111.01a1.7,1.7,0,0,1,.917.261.953.953,0,0,1,.128,1.66c-1.116,1.122-2.244,2.231-3.434,3.411a27.631,27.631,0,0,0,18.851,7.391v2.315c-1.244-.065-2.479-.042-3.689-.211a31.564,31.564,0,0,1-6.83-1.7,27.6,27.6,0,0,1-7.554-4.195c-1.052-.84-2.071-1.724-3.069-2.628a1.112,1.112,0,0,1-.01-1.822c.688-.7,1.395-1.376,2.175-2.144H32.792v8.684c.741-.756,1.4-1.434,2.065-2.1.779-.783,1.341-.78,2.114-.029a33.938,33.938,0,0,0,17.57,9.113,30.48,30.48,0,0,0,8.035.421,32.836,32.836,0,0,0,13.887-4.111,36.049,36.049,0,0,0,5.957-4.193,33.625,33.625,0,0,0,8.2-10.8,31.183,31.183,0,0,0,2.518-7.435c.362-1.766.418-3.594.616-5.394.051-.469.119-.937.186-1.458Z" transform="translate(-24.582 -149.837)" fill="#2b6ddb"/>
          <path id="Path_3906" data-name="Path 3906" d="M2.33,35.683H0C.12,34.2.173,32.734.373,31.29a45.832,45.832,0,0,1,.9-4.807,34.138,34.138,0,0,1,3.3-8.173,36.253,36.253,0,0,1,7.363-9.223,35.556,35.556,0,0,1,6.128-4.44A33.753,33.753,0,0,1,27.721.855,42.658,42.658,0,0,1,33.938.091a30.661,30.661,0,0,1,4.684,0,37.878,37.878,0,0,1,5.066.738,31.36,31.36,0,0,1,9.256,3.491c1.943,1.137,3.745,2.518,5.6,3.811a8.427,8.427,0,0,1,1.175,1.029c.359.367.612.445,1.017.012.968-1.034,2-2.01,3-3.018a1.051,1.051,0,0,1,1.26-.374,1.284,1.284,0,0,1,.867,1.249c-.005,4.11,0,8.221-.006,12.331a1.274,1.274,0,0,1-1.341,1.335q-6.235.012-12.47,0a1.034,1.034,0,0,1-1.068-.657,1.15,1.15,0,0,1,.25-1.37c1.085-1.087,2.174-2.168,3.406-3.4-1.264-.952-2.435-1.923-3.693-2.765a26.7,26.7,0,0,0-10.222-4.05,30.8,30.8,0,0,0-4.031-.3c-.561-.026-.9-.132-.831-.8.054-.521.011-1.052.011-1.639,1.055.08,2.081.117,3.1.245a26.976,26.976,0,0,1,3.73.62,32.767,32.767,0,0,1,5.38,1.8A46.146,46.146,0,0,1,53.9,11.792,24.8,24.8,0,0,1,57,14.517a.979.979,0,0,1-.04,1.594c-.724.723-1.457,1.438-2.272,2.241h8.829V9.7a2.835,2.835,0,0,0-.41.274c-.633.623-1.257,1.256-1.887,1.884a1.2,1.2,0,0,1-1.949.017,32.273,32.273,0,0,0-9.777-6.7A27.405,27.405,0,0,0,41.6,2.82c-1.664-.2-3.341-.311-5.014-.441a29.926,29.926,0,0,0-13.557,2.4A32.812,32.812,0,0,0,14.617,9.82,33.121,33.121,0,0,0,7.24,18.289a28.974,28.974,0,0,0-3.661,8.558c-.427,1.812-.725,3.659-1,5.5-.162,1.077-.168,2.177-.248,3.334" transform="translate(0 0)" fill="#2b6ddb"/>
          <path id="Path_3907" data-name="Path 3907" d="M84.258,103.1a19.507,19.507,0,0,1,19.035-19.492,19.264,19.264,0,0,1,15.4,6.8,18.766,18.766,0,0,1,4.761,12.811,19.687,19.687,0,0,1-18.815,19.59,18.845,18.845,0,0,1-14.405-5.514,19.1,19.1,0,0,1-5.98-14.2m2.325.069c-.311,8.987,7.732,18.012,18.316,17.339a17.349,17.349,0,0,0,16.14-18.958,17.266,17.266,0,0,0-34.455,1.618" transform="translate(-68.028 -67.499)" fill="#2b6ddb"/>
          <path id="Path_3908" data-name="Path 3908" d="M73.815,49.33a29.271,29.271,0,0,1,9.58-6.638l.937,2.025c-.751.406-1.491.821-2.244,1.21a22.023,22.023,0,0,0-6.06,4.537c-.414.444-.694.463-1.083,0-.337-.4-.744-.748-1.13-1.129" transform="translate(-59.597 -34.469)" fill="#2b6ddb"/>
          <path id="Path_3909" data-name="Path 3909" d="M252.341,285.413l1.642,1.518a29.347,29.347,0,0,1-9.564,6.705l-.908-2.089a30.972,30.972,0,0,0,8.83-6.134" transform="translate(-196.606 -230.436)" fill="#2b6ddb"/>
          <path id="Path_3910" data-name="Path 3910" d="M221.048,324.839l-.53-2.286,2.237-.575c.2.653.4,1.194.532,1.75a.541.541,0,0,1-.205.478c-.647.236-1.314.416-2.034.633" transform="translate(-178.041 -259.959)" fill="#2b6ddb"/>
          <path id="Path_3911" data-name="Path 3911" d="M136.094,34.777l2.365-.735c.17.609.342,1.221.511,1.834a.259.259,0,0,1,0,.142c-.262.786-1.057.476-1.576.739a.487.487,0,0,1-.752-.37,14.614,14.614,0,0,0-.546-1.61" transform="translate(-109.879 -27.485)" fill="#2b6ddb"/>
          <path id="Path_3912" data-name="Path 3912" d="M200.026,329.872l-2.347.32c-.082-.66-.181-1.232-.207-1.809-.008-.187.153-.53.276-.549.642-.1,1.3-.117,1.963-.165l.316,2.2" transform="translate(-159.433 -264.553)" fill="#2b6ddb"/>
          <path id="Path_3913" data-name="Path 3913" d="M161.281,30.5l2.268-.2c.08.469.161.879.217,1.294a5.293,5.293,0,0,1,0,.575c.012.482-.349.487-.647.44-.553-.088-1.31.662-1.634-.281a8.259,8.259,0,0,1-.205-1.823" transform="translate(-130.215 -24.461)" fill="#2b6ddb"/>
          <path id="Path_3914" data-name="Path 3914" d="M110.837,122.569h-2.192c-.434-7.319,5.981-15.018,14.878-14.953v2.259a12.824,12.824,0,0,0-8.948,3.723,12.614,12.614,0,0,0-3.737,8.971" transform="translate(-87.701 -86.887)" fill="#2b6ddb"/>
          <path id="Path_3915" data-name="Path 3915" d="M186.317,200.461V198.18a12.851,12.851,0,0,0,12.639-12.695H201.2a14.965,14.965,0,0,1-14.882,14.976" transform="translate(-150.428 -149.757)" fill="#2b6ddb"/>
        </g>
      </g>
      <text id="_" data-name="₹" transform="translate(31.066 40.518)" fill="#2b6ddb" font-size="16" font-family="MyriadPro-Bold, Myriad Pro" font-weight="700"><tspan x="0" y="0">₹</tspan></text>
    </g>
  </g>
</svg>
