<svg id="mail" xmlns="http://www.w3.org/2000/svg" width="28.334" height="19.923" viewBox="0 0 28.334 19.923">
  <g id="Group_334" data-name="Group 334" transform="translate(19.492 1.423)">
    <g id="Group_333" data-name="Group 333">
      <path id="Path_3854" data-name="Path 3854" d="M360.8,101.721l-8.593,8.538L360.8,118.8a2.462,2.462,0,0,0,.25-1.067V102.788A2.461,2.461,0,0,0,360.8,101.721Z" transform="translate(-352.211 -101.721)" fill="#2b6ddb"/>
    </g>
  </g>
  <g id="Group_336" data-name="Group 336" transform="translate(1.423 0)">
    <g id="Group_335" data-name="Group 335">
      <path id="Path_3855" data-name="Path 3855" d="M50.142,76H26.788a2.461,2.461,0,0,0-1.067.25L36.7,87.177a2.492,2.492,0,0,0,3.521,0L51.209,76.25A2.461,2.461,0,0,0,50.142,76Z" transform="translate(-25.721 -76)" fill="#2b6ddb"/>
    </g>
  </g>
  <g id="Group_338" data-name="Group 338" transform="translate(0 1.423)">
    <g id="Group_337" data-name="Group 337">
      <path id="Path_3856" data-name="Path 3856" d="M.25,101.721A2.461,2.461,0,0,0,0,102.788V117.73A2.461,2.461,0,0,0,.25,118.8l8.593-8.538Z" transform="translate(0 -101.721)" fill="#2b6ddb"/>
    </g>
  </g>
  <g id="Group_340" data-name="Group 340" transform="translate(1.423 11.135)">
    <g id="Group_339" data-name="Group 339">
      <path id="Path_3857" data-name="Path 3857" d="M42.615,277.211,41.4,278.427a4.155,4.155,0,0,1-5.869,0l-1.216-1.216-8.593,8.538a2.461,2.461,0,0,0,1.067.25H50.142a2.461,2.461,0,0,0,1.067-.25Z" transform="translate(-25.721 -277.211)" fill="#2b6ddb"/>
    </g>
  </g>
</svg>
