<?xml version="1.0" encoding="UTF-8" standalone="no" ?>
<!DOCTYPE svg PUBLIC "-//W3C//DTD SVG 1.1//EN" "http://www.w3.org/Graphics/SVG/1.1/DTD/svg11.dtd">
<svg xmlns="http://www.w3.org/2000/svg" xmlns:xlink="http://www.w3.org/1999/xlink" version="1.1" width="1080" height="1080" viewBox="0 0 1080 1080" xml:space="preserve">
<desc>Created with Fabric.js 5.2.4</desc>
<defs>
</defs>
<g transform="matrix(1 0 0 1 540 540)" id="e4085e70-9579-42c0-bfcd-a3288d79c9f9"  >
</g>
<g transform="matrix(1 0 0 1 540 540)" id="ba2297b9-f914-4d1f-aad2-c825db7b1d02"  >
<rect style="stroke: none; stroke-width: 1; stroke-dasharray: none; stroke-linecap: butt; stroke-dashoffset: 0; stroke-linejoin: miter; stroke-miterlimit: 4; fill: rgb(255,255,255); fill-rule: nonzero; opacity: 1; visibility: hidden;" vector-effect="non-scaling-stroke"  x="-540" y="-540" rx="0" ry="0" width="1080" height="1080" />
</g>
<g transform="matrix(1 0 0 1 540 540)"  >
<g style="" vector-effect="non-scaling-stroke"   >
		<g transform="matrix(1 0 0 1 0 0)"  >
<path style="stroke: none; stroke-width: 1; stroke-dasharray: none; stroke-linecap: butt; stroke-dashoffset: 0; stroke-linejoin: miter; stroke-miterlimit: 4; fill: rgb(229,229,229); fill-rule: nonzero; opacity: 1;" vector-effect="non-scaling-stroke"  transform=" translate(-14, -14.06)" d="M 0.6 28.122 C 0.4137532150823965 28.12126620807247 0.23840752836807333 28.03408292354329 0.12540918265351214 27.886029631757836 C 0.012410836938950953 27.737976339972377 -0.025425985439183285 27.545842506869153 0.02300000000000002 27.366 L 1.85 20.689 C -1.1910053536202012 15.186225278835082 -0.17371436149291553 8.329021181898131 4.333868670752999 3.946106809012541 C 8.841451702998913 -0.43680756387304953 15.724484283961589 -1.261423522437127 21.13982598280417 1.9326831566540932 C 26.555167681646747 5.126789835745313 29.163463684904585 11.549633516631632 27.508372226386548 17.615020186628772 C 25.85328076786851 23.68040685662591 20.34414900145116 27.888208678238186 14.057000000000006 27.888999999999996 L 14.05 27.889 C 11.804017772620371 27.88741803170417 9.591516814562272 27.344411982617974 7.6 26.306000000000004 L 0.75 28.1 C 0.7003970133653329 28.113138965207646 0.6493134409894468 28.119860487888683 0.598 28.12 Z M 0.6 28.122" stroke-linecap="round" />
</g>
		<g transform="matrix(1 0 0 1 0 0)"  >
<path style="stroke: none; stroke-width: 1; stroke-dasharray: none; stroke-linecap: butt; stroke-dashoffset: 0; stroke-linejoin: miter; stroke-miterlimit: 4; fill: rgb(255,255,255); fill-rule: nonzero; opacity: 1;" vector-effect="non-scaling-stroke"  transform=" translate(-24.3, -24.36)" d="M 10.894 37.82 L 12.787 30.906 C 9.77188234065669 25.673215148414517 10.64650866085269 19.067804007631775 14.919597543649669 14.800054811347714 C 19.19268642644665 10.532305615063652 25.79918602655247 9.665939311149405 31.02819671792433 12.687597629388762 C 36.2572074092962 15.709255947628119 38.80541731646182 21.865801554360786 37.24148582578853 27.699075943170797 C 35.67755433511524 33.53235033198081 30.39128567622201 37.58843110099411 24.352000000000007 37.589 L 24.346 37.589 C 22.11803927006517 37.58893021185848 19.925608680498115 37.03059443054173 17.969000000000005 35.964999999999996 Z M 18.294 33.549 L 18.699 33.789 C 20.408318315631515 34.801295165996684 22.358417373644883 35.335275531510085 24.345 35.335 L 24.345000000000002 35.335 C 29.402091206966606 35.333699926462785 33.8179457993525 31.911706942207232 35.08141706397534 27.014992377395174 C 36.34488832859816 22.118277812583116 34.13600066425029 16.986940457499003 29.710873556315228 14.538997802045564 C 25.285746448380166 12.091055146592126 19.765048602532374 12.946451581142462 16.288213611983373 16.618752169910252 C 12.81137862143437 20.291052758678042 12.25891908472969 25.850243007778527 14.945 30.134999999999994 L 15.209000000000001 30.555000000000003 L 14.1 34.65 Z M 18.294 33.549" stroke-linecap="round" />
</g>
		<g transform="matrix(1 0 0 1 0 0)"  >
<path style="stroke: none; stroke-width: 1; stroke-dasharray: none; stroke-linecap: butt; stroke-dashoffset: 0; stroke-linejoin: miter; stroke-miterlimit: 4; fill: rgb(100,177,97); fill-rule: nonzero; opacity: 1;" vector-effect="non-scaling-stroke"  transform=" translate(-32.28, -32.38)" d="M 19.344 45.376 L 21.172 38.7 C 18.260913295743126 33.648446542242446 19.104969058565786 27.271532284145188 23.230044822278238 23.151293446417988 C 27.355120585990694 19.031054608690788 33.73302074692646 18.194481167196383 38.78115528366046 21.111492623347498 C 43.829289820394465 24.028504079498617 46.289386149657695 29.9720208529774 44.77956052624117 35.60345448245031 C 43.26973490282465 41.23488811192322 38.166318855461995 45.150575820793705 32.33600000000001 45.151 L 32.33 45.151 C 30.179275323359114 45.15045951150295 28.062917643067262 44.61140024530776 26.173999999999996 43.583000000000006 Z M 19.344 45.376" stroke-linecap="round" />
</g>
		<g transform="matrix(1 0 0 1 0 0)"  >
<path style="stroke: none; stroke-width: 1; stroke-dasharray: none; stroke-linecap: butt; stroke-dashoffset: 0; stroke-linejoin: miter; stroke-miterlimit: 4; fill: rgb(255,255,255); fill-rule: nonzero; opacity: 1;" vector-effect="non-scaling-stroke"  transform=" translate(-24.3, -24.36)" d="M 10.894 37.82 L 12.787 30.906 C 9.77188234065669 25.673215148414517 10.64650866085269 19.067804007631775 14.919597543649669 14.800054811347714 C 19.19268642644665 10.532305615063652 25.79918602655247 9.665939311149405 31.02819671792433 12.687597629388762 C 36.2572074092962 15.709255947628119 38.80541731646182 21.865801554360786 37.24148582578853 27.699075943170797 C 35.67755433511524 33.53235033198081 30.39128567622201 37.58843110099411 24.352000000000007 37.589 L 24.346 37.589 C 22.11803927006517 37.58893021185848 19.925608680498115 37.03059443054173 17.969000000000005 35.964999999999996 Z M 18.294 33.549 L 18.699 33.789 C 20.408318315631515 34.801295165996684 22.358417373644883 35.335275531510085 24.345 35.335 L 24.345000000000002 35.335 C 29.402091206966606 35.333699926462785 33.8179457993525 31.911706942207232 35.08141706397534 27.014992377395174 C 36.34488832859816 22.118277812583116 34.13600066425029 16.986940457499003 29.710873556315228 14.538997802045564 C 25.285746448380166 12.091055146592126 19.765048602532374 12.946451581142462 16.288213611983373 16.618752169910252 C 12.81137862143437 20.291052758678042 12.25891908472969 25.850243007778527 14.945 30.134999999999994 L 15.209000000000001 30.555000000000003 L 14.1 34.65 Z M 18.294 33.549" stroke-linecap="round" />
</g>
		<g transform="matrix(1 0 0 1 0.04 0.01)"  >
<path style="stroke: none; stroke-width: 1; stroke-dasharray: none; stroke-linecap: butt; stroke-dashoffset: 0; stroke-linejoin: miter; stroke-miterlimit: 4; fill: rgb(255,255,255); fill-rule: evenodd; opacity: 1;" vector-effect="non-scaling-stroke"  transform=" translate(-139.22, -147.9)" d="M 135.892 142.2 C 135.642 141.64499999999998 135.379 141.634 135.141 141.624 C 134.947 141.61599999999999 134.724 141.61599999999999 134.50199999999998 141.61599999999999 C 134.16048360525343 141.62495458224473 133.838221470781 141.776116910788 133.61299999999997 142.033 C 132.85070119558634 142.75496978991737 132.4271757704367 143.76424503185498 132.44599999999997 144.814 C 132.5546779820586 146.07171469566282 133.02802657485776 147.27037790899936 133.80799999999996 148.263 C 133.97499999999997 148.485 136.11499999999995 151.963 139.50799999999995 153.297 C 142.32499999999996 154.408 142.89799999999994 154.18699999999998 143.50799999999995 154.131 C 144.44986491618266 153.94745852684557 145.26871969079033 153.37087708848344 145.75899999999996 152.546 C 145.9775264879987 152.04773080153169 146.0453173950082 151.4963647578544 145.95399999999995 150.95999999999998 C 145.87099999999995 150.82099999999997 145.64799999999994 150.73799999999997 145.31499999999994 150.57099999999997 C 144.98199999999994 150.40399999999997 143.34199999999993 149.59699999999998 143.03599999999994 149.48599999999996 C 142.72999999999996 149.37499999999994 142.50799999999995 149.31899999999996 142.28599999999994 149.65299999999996 C 142.06399999999994 149.98699999999997 141.42499999999995 150.73699999999997 141.22999999999993 150.95999999999995 C 141.0349999999999 151.18299999999994 140.84099999999992 151.21099999999996 140.50699999999992 151.04399999999995 C 139.5237062620161 150.65220489985504 138.61614976154584 150.09217283114575 137.82499999999993 149.38899999999995 C 137.09600168349095 148.71519225992768 136.470878613824 147.93707411013742 135.96999999999994 147.07999999999996 C 135.77599999999995 146.74699999999996 135.96999999999994 146.57999999999996 136.11699999999993 146.39999999999995 C 136.42103355333967 146.03998628183885 136.69938613333034 145.65904757692968 136.94999999999993 145.25999999999996 C 137.0397135336861 145.0730605771904 137.02918660899252 144.85349900500987 136.92199999999994 144.67599999999996 C 136.836 144.506 136.188 142.857 135.892 142.2 Z M 135.892 142.2" stroke-linecap="round" />
</g>
</g>
</g>
</svg>