<svg id="telephone" xmlns="http://www.w3.org/2000/svg" width="24.923" height="24.923" viewBox="0 0 24.923 24.923">
  <path id="Path_3917" data-name="Path 3917" d="M12.461,0A12.461,12.461,0,1,1,0,12.461,12.461,12.461,0,0,1,12.461,0Z" fill="#2b6ddb"/>
  <path id="Path_3916" data-name="Path 3916" d="M125.292,121.623a8.633,8.633,0,0,1-3.823-.874.783.783,0,0,0-1.048.363l-.563,1.165a11.01,11.01,0,0,1-4.061-4.061l1.167-.563a.783.783,0,0,0,.363-1.048,8.6,8.6,0,0,1-.876-3.823.782.782,0,0,0-.782-.782h-2.887a.782.782,0,0,0-.782.782,13.307,13.307,0,0,0,13.292,13.292.782.782,0,0,0,.782-.782v-2.887A.782.782,0,0,0,125.292,121.623Z" transform="translate(-106.527 -106.527)" fill="#fafafa"/>
</svg>
